<mxfile host="app.diagrams.net" modified="2021-03-09T08:19:04.274Z" agent="5.0 (Windows)" etag="QfUWWtXPqnnFIyAZadyD" version="14.4.4" type="github">
  <diagram id="prtHgNgQTEPvFCAcTncT" name="Page-1">
    <mxGraphModel dx="1564" dy="882" grid="1" gridSize="10" guides="1" tooltips="1" connect="1" arrows="1" fold="1" page="1" pageScale="1" pageWidth="827" pageHeight="1169" math="0" shadow="0">
      <root>
        <mxCell id="0" />
        <mxCell id="1" parent="0" />
        <mxCell id="nJMoT2Qbl9n6ZQ9c5znX-2" value="Déconnecté" style="rounded=1;whiteSpace=wrap;html=1;strokeWidth=1;" vertex="1" parent="1">
          <mxGeometry x="353" y="150" width="120" height="60" as="geometry" />
        </mxCell>
        <mxCell id="nJMoT2Qbl9n6ZQ9c5znX-3" value="" style="ellipse;whiteSpace=wrap;html=1;aspect=fixed;strokeWidth=1;labelBackgroundColor=#000000;labelBorderColor=#000000;" vertex="1" parent="1">
          <mxGeometry x="398" y="70" width="30" height="30" as="geometry" />
        </mxCell>
        <mxCell id="nJMoT2Qbl9n6ZQ9c5znX-6" value="Connecté" style="rounded=1;whiteSpace=wrap;html=1;labelBackgroundColor=none;strokeWidth=1;" vertex="1" parent="1">
          <mxGeometry x="354" y="260" width="120" height="60" as="geometry" />
        </mxCell>
        <mxCell id="nJMoT2Qbl9n6ZQ9c5znX-8" value="prendre un rendez-vous" style="rounded=1;whiteSpace=wrap;html=1;labelBackgroundColor=none;strokeWidth=1;" vertex="1" parent="1">
          <mxGeometry x="180" y="370" width="120" height="60" as="geometry" />
        </mxCell>
        <mxCell id="nJMoT2Qbl9n6ZQ9c5znX-19" value="" style="edgeStyle=elbowEdgeStyle;elbow=horizontal;endArrow=classic;html=1;entryX=1;entryY=0.5;entryDx=0;entryDy=0;" edge="1" parent="1" target="nJMoT2Qbl9n6ZQ9c5znX-2">
          <mxGeometry width="50" height="50" relative="1" as="geometry">
            <mxPoint x="473" y="290" as="sourcePoint" />
            <mxPoint x="523" y="180" as="targetPoint" />
            <Array as="points">
              <mxPoint x="510" y="230" />
            </Array>
          </mxGeometry>
        </mxCell>
        <mxCell id="nJMoT2Qbl9n6ZQ9c5znX-20" value="Clic bouton déconnexion" style="text;html=1;strokeColor=none;fillColor=none;align=center;verticalAlign=middle;whiteSpace=wrap;rounded=0;labelBackgroundColor=none;" vertex="1" parent="1">
          <mxGeometry x="540" y="230" width="40" height="20" as="geometry" />
        </mxCell>
        <mxCell id="nJMoT2Qbl9n6ZQ9c5znX-21" value="" style="edgeStyle=elbowEdgeStyle;elbow=horizontal;endArrow=classic;html=1;exitX=0;exitY=0.5;exitDx=0;exitDy=0;entryX=0;entryY=0.5;entryDx=0;entryDy=0;" edge="1" parent="1" source="nJMoT2Qbl9n6ZQ9c5znX-2" target="nJMoT2Qbl9n6ZQ9c5znX-6">
          <mxGeometry width="50" height="50" relative="1" as="geometry">
            <mxPoint x="380" y="370" as="sourcePoint" />
            <mxPoint x="330" y="300" as="targetPoint" />
            <Array as="points">
              <mxPoint x="320" y="240" />
            </Array>
          </mxGeometry>
        </mxCell>
        <mxCell id="nJMoT2Qbl9n6ZQ9c5znX-22" value="&lt;div&gt;Clic bouton &lt;br&gt;&lt;/div&gt;&lt;div&gt;connexion&lt;/div&gt;" style="text;html=1;strokeColor=none;fillColor=none;align=center;verticalAlign=middle;whiteSpace=wrap;rounded=0;labelBackgroundColor=none;" vertex="1" parent="1">
          <mxGeometry x="260" y="230" width="40" height="20" as="geometry" />
        </mxCell>
        <mxCell id="nJMoT2Qbl9n6ZQ9c5znX-23" value="" style="endArrow=classic;html=1;entryX=0.5;entryY=0;entryDx=0;entryDy=0;exitX=0.5;exitY=1;exitDx=0;exitDy=0;" edge="1" parent="1" source="nJMoT2Qbl9n6ZQ9c5znX-6" target="nJMoT2Qbl9n6ZQ9c5znX-8">
          <mxGeometry width="50" height="50" relative="1" as="geometry">
            <mxPoint x="380" y="370" as="sourcePoint" />
            <mxPoint x="430" y="320" as="targetPoint" />
          </mxGeometry>
        </mxCell>
        <mxCell id="nJMoT2Qbl9n6ZQ9c5znX-24" value="vérification disponibilité" style="rounded=1;whiteSpace=wrap;html=1;labelBackgroundColor=none;strokeWidth=1;" vertex="1" parent="1">
          <mxGeometry x="180" y="486" width="120" height="60" as="geometry" />
        </mxCell>
        <mxCell id="nJMoT2Qbl9n6ZQ9c5znX-25" value="" style="endArrow=classic;html=1;entryX=0.5;entryY=0;entryDx=0;entryDy=0;exitX=0.5;exitY=1;exitDx=0;exitDy=0;" edge="1" parent="1" source="nJMoT2Qbl9n6ZQ9c5znX-8" target="nJMoT2Qbl9n6ZQ9c5znX-24">
          <mxGeometry width="50" height="50" relative="1" as="geometry">
            <mxPoint x="414" y="320" as="sourcePoint" />
            <mxPoint x="240" y="370" as="targetPoint" />
            <Array as="points" />
          </mxGeometry>
        </mxCell>
        <mxCell id="nJMoT2Qbl9n6ZQ9c5znX-26" value="Clic bouton déconnexion" style="text;html=1;strokeColor=none;fillColor=none;align=center;verticalAlign=middle;whiteSpace=wrap;rounded=0;labelBackgroundColor=none;" vertex="1" parent="1">
          <mxGeometry x="540" y="230" width="40" height="20" as="geometry" />
        </mxCell>
        <mxCell id="nJMoT2Qbl9n6ZQ9c5znX-28" value="Clic bouton prendre un rendez-vous" style="text;html=1;strokeColor=none;fillColor=none;align=center;verticalAlign=middle;whiteSpace=wrap;rounded=0;labelBackgroundColor=none;" vertex="1" parent="1">
          <mxGeometry x="130" y="450" width="40" height="20" as="geometry" />
        </mxCell>
        <mxCell id="nJMoT2Qbl9n6ZQ9c5znX-30" value="réservation du rendez-vous" style="rounded=1;whiteSpace=wrap;html=1;labelBackgroundColor=none;strokeWidth=1;" vertex="1" parent="1">
          <mxGeometry x="180" y="652" width="120" height="60" as="geometry" />
        </mxCell>
        <mxCell id="nJMoT2Qbl9n6ZQ9c5znX-31" value="" style="endArrow=classic;html=1;entryX=0.5;entryY=0;entryDx=0;entryDy=0;exitX=0.5;exitY=1;exitDx=0;exitDy=0;" edge="1" parent="1" source="nJMoT2Qbl9n6ZQ9c5znX-41" target="nJMoT2Qbl9n6ZQ9c5znX-30">
          <mxGeometry width="50" height="50" relative="1" as="geometry">
            <mxPoint x="239.5" y="546" as="sourcePoint" />
            <mxPoint x="239.5" y="602" as="targetPoint" />
            <Array as="points" />
          </mxGeometry>
        </mxCell>
        <mxCell id="nJMoT2Qbl9n6ZQ9c5znX-32" value="" style="endArrow=classic;html=1;entryX=0.5;entryY=0;entryDx=0;entryDy=0;exitX=0.5;exitY=1;exitDx=0;exitDy=0;" edge="1" parent="1" source="nJMoT2Qbl9n6ZQ9c5znX-3" target="nJMoT2Qbl9n6ZQ9c5znX-2">
          <mxGeometry width="50" height="50" relative="1" as="geometry">
            <mxPoint x="260" y="400" as="sourcePoint" />
            <mxPoint x="310" y="350" as="targetPoint" />
          </mxGeometry>
        </mxCell>
        <mxCell id="nJMoT2Qbl9n6ZQ9c5znX-33" value="éditer un rendez-vous" style="rounded=1;whiteSpace=wrap;html=1;labelBackgroundColor=none;strokeWidth=1;" vertex="1" parent="1">
          <mxGeometry x="353" y="370" width="120" height="60" as="geometry" />
        </mxCell>
        <mxCell id="nJMoT2Qbl9n6ZQ9c5znX-35" value="" style="endArrow=classic;html=1;entryX=0.5;entryY=0;entryDx=0;entryDy=0;" edge="1" parent="1" target="nJMoT2Qbl9n6ZQ9c5znX-33">
          <mxGeometry width="50" height="50" relative="1" as="geometry">
            <mxPoint x="413" y="320" as="sourcePoint" />
            <mxPoint x="440" y="340" as="targetPoint" />
          </mxGeometry>
        </mxCell>
        <mxCell id="nJMoT2Qbl9n6ZQ9c5znX-36" value="changement état rendez-vous" style="rounded=1;whiteSpace=wrap;html=1;labelBackgroundColor=none;strokeWidth=1;" vertex="1" parent="1">
          <mxGeometry x="353" y="480" width="120" height="60" as="geometry" />
        </mxCell>
        <mxCell id="nJMoT2Qbl9n6ZQ9c5znX-37" value="envoie d&#39;un email" style="rounded=1;whiteSpace=wrap;html=1;labelBackgroundColor=none;strokeWidth=1;" vertex="1" parent="1">
          <mxGeometry x="353" y="610" width="120" height="60" as="geometry" />
        </mxCell>
        <mxCell id="nJMoT2Qbl9n6ZQ9c5znX-38" value="" style="endArrow=classic;html=1;entryX=0.5;entryY=0;entryDx=0;entryDy=0;exitX=0.5;exitY=1;exitDx=0;exitDy=0;" edge="1" parent="1" source="nJMoT2Qbl9n6ZQ9c5znX-33" target="nJMoT2Qbl9n6ZQ9c5znX-36">
          <mxGeometry width="50" height="50" relative="1" as="geometry">
            <mxPoint x="260" y="400" as="sourcePoint" />
            <mxPoint x="310" y="350" as="targetPoint" />
          </mxGeometry>
        </mxCell>
        <mxCell id="nJMoT2Qbl9n6ZQ9c5znX-39" value="" style="endArrow=classic;html=1;entryX=0.5;entryY=0;entryDx=0;entryDy=0;exitX=0.5;exitY=1;exitDx=0;exitDy=0;" edge="1" parent="1" source="nJMoT2Qbl9n6ZQ9c5znX-36" target="nJMoT2Qbl9n6ZQ9c5znX-37">
          <mxGeometry width="50" height="50" relative="1" as="geometry">
            <mxPoint x="260" y="400" as="sourcePoint" />
            <mxPoint x="310" y="350" as="targetPoint" />
          </mxGeometry>
        </mxCell>
        <mxCell id="nJMoT2Qbl9n6ZQ9c5znX-40" value="Clic bouton edition rendez-vous" style="text;html=1;strokeColor=none;fillColor=none;align=center;verticalAlign=middle;whiteSpace=wrap;rounded=0;labelBackgroundColor=none;" vertex="1" parent="1">
          <mxGeometry x="490" y="440" width="40" height="20" as="geometry" />
        </mxCell>
        <mxCell id="nJMoT2Qbl9n6ZQ9c5znX-41" value="" style="rhombus;whiteSpace=wrap;html=1;labelBackgroundColor=none;strokeWidth=1;" vertex="1" parent="1">
          <mxGeometry x="224" y="580" width="30" height="30" as="geometry" />
        </mxCell>
        <mxCell id="nJMoT2Qbl9n6ZQ9c5znX-42" value="" style="endArrow=classic;html=1;entryX=0.5;entryY=0;entryDx=0;entryDy=0;exitX=0.5;exitY=1;exitDx=0;exitDy=0;" edge="1" parent="1" target="nJMoT2Qbl9n6ZQ9c5znX-41">
          <mxGeometry width="50" height="50" relative="1" as="geometry">
            <mxPoint x="239.5" y="546" as="sourcePoint" />
            <mxPoint x="240" y="610" as="targetPoint" />
            <Array as="points" />
          </mxGeometry>
        </mxCell>
        <mxCell id="nJMoT2Qbl9n6ZQ9c5znX-43" value="" style="edgeStyle=elbowEdgeStyle;elbow=horizontal;endArrow=classic;html=1;entryX=0;entryY=0.5;entryDx=0;entryDy=0;exitX=0;exitY=0.5;exitDx=0;exitDy=0;" edge="1" parent="1" source="nJMoT2Qbl9n6ZQ9c5znX-41" target="nJMoT2Qbl9n6ZQ9c5znX-8">
          <mxGeometry width="50" height="50" relative="1" as="geometry">
            <mxPoint x="260" y="470" as="sourcePoint" />
            <mxPoint x="310" y="420" as="targetPoint" />
            <Array as="points">
              <mxPoint x="80" y="510" />
            </Array>
          </mxGeometry>
        </mxCell>
        <mxCell id="nJMoT2Qbl9n6ZQ9c5znX-44" value="[disponibilité invalide]" style="text;html=1;strokeColor=none;fillColor=none;align=center;verticalAlign=middle;whiteSpace=wrap;rounded=0;labelBackgroundColor=none;" vertex="1" parent="1">
          <mxGeometry x="20" y="487" width="40" height="20" as="geometry" />
        </mxCell>
      </root>
    </mxGraphModel>
  </diagram>
</mxfile>
